<svg width="645" height="431" viewBox="0 0 645 431" fill="none" xmlns="http://www.w3.org/2000/svg">
<g filter="url(#filter0_f_24_100)">
<path d="M359.695 420.979C511.742 420.979 635 413.427 635 404.111C635 394.794 511.742 387.242 359.695 387.242C207.649 387.242 84.3908 394.794 84.3908 404.111C84.3908 413.427 207.649 420.979 359.695 420.979Z" fill="#3E3127"/>
<path d="M550.821 375.151H172.008C169.629 375.14 167.351 374.065 165.673 372.163C163.994 370.26 163.052 367.685 163.052 365V92.891C163.052 87.2825 167.077 76.3427 172.046 76.3427H550.821C555.772 76.3427 559.797 87.2825 559.797 92.891V365C559.797 367.689 558.852 370.267 557.169 372.17C555.486 374.073 553.204 375.145 550.821 375.151Z" fill="#637582"/>
<path d="M559.853 82.8681V92.7417C559.853 87.1331 561.497 82.5909 556.547 82.5909H168.21C163.26 82.5056 163.052 87.1331 163.052 92.7417V82.8681C163.052 80.1796 163.997 77.601 165.68 75.6979C167.362 73.7949 169.645 72.723 172.027 72.7173H550.821C552.006 72.7117 553.179 72.9701 554.275 73.4777C555.371 73.9853 556.366 74.7321 557.206 75.6753C558.045 76.6184 558.711 77.7394 559.165 78.9737C559.62 80.208 559.853 81.5315 559.853 82.8681Z" fill="#9FB1BC"/>
<path d="M179.189 368.263V96.6229H543.622V368.007" fill="#CAEEFC"/>
<path d="M543.962 357.28H179.529V367.197H543.962V357.28Z" fill="#78ABBA"/>
<path d="M543.962 99.2245H179.529V109.141H543.962V99.2245Z" fill="white"/>
<path d="M563.632 370.033H556.074V84.6381C556.074 83.0827 555.527 81.5911 554.552 80.4913C553.578 79.3915 552.256 78.7736 550.878 78.7736H172.008C170.635 78.7849 169.321 79.407 168.352 80.505C167.382 81.6029 166.836 83.0881 166.831 84.6381V368.263H159.273V84.6381C159.278 80.8184 160.626 77.1572 163.021 74.4583C165.416 71.7594 168.662 70.2436 172.046 70.2436H550.821C552.5 70.238 554.164 70.606 555.717 71.3266C557.27 72.0472 558.681 73.1063 559.871 74.4432C561.061 75.7802 562.006 77.3687 562.651 79.1181C563.296 80.8674 563.63 82.7432 563.632 84.6381V370.033Z" fill="#3E3127"/>
<path d="M600.308 370.033H122.522C114.778 370.033 108.501 377.117 108.501 385.856C108.501 394.595 114.778 401.679 122.522 401.679H600.308C608.051 401.679 614.328 394.595 614.328 385.856C614.328 377.117 608.051 370.033 600.308 370.033Z" fill="#637582"/>
<path d="M614.329 387.946C614.331 390.025 613.97 392.084 613.266 394.005C612.563 395.926 611.53 397.671 610.228 399.141C608.925 400.611 607.379 401.776 605.677 402.57C603.974 403.365 602.15 403.772 600.308 403.769H122.522C118.803 403.769 115.237 402.102 112.608 399.135C109.978 396.167 108.501 392.143 108.501 387.946C108.494 385.166 109.146 382.434 110.391 380.034C111.616 382.442 113.383 384.442 115.513 385.831C117.644 387.221 120.061 387.95 122.522 387.946H600.308C602.15 387.948 603.974 387.54 605.676 386.746C607.378 385.952 608.925 384.787 610.228 383.318C611.091 382.34 611.835 381.235 612.439 380.034C613.684 382.434 614.336 385.166 614.329 387.946Z" fill="#455760"/>
<path d="M600.308 407.331H122.522C117.801 407.331 113.274 405.214 109.935 401.447C106.597 397.68 104.722 392.57 104.722 387.242C104.722 381.915 106.597 376.805 109.935 373.038C113.274 369.27 117.801 367.154 122.522 367.154H600.308C605.029 367.154 609.556 369.27 612.894 373.038C616.232 376.805 618.108 381.915 618.108 387.242C618.108 392.57 616.232 397.68 612.894 401.447C609.556 405.214 605.029 407.331 600.308 407.331ZM122.522 375.684C119.805 375.684 117.2 376.902 115.28 379.069C113.359 381.237 112.28 384.177 112.28 387.242C112.28 390.308 113.359 393.248 115.28 395.415C117.2 397.583 119.805 398.801 122.522 398.801H600.308C603.024 398.801 605.629 397.583 607.55 395.415C609.471 393.248 610.549 390.308 610.549 387.242C610.549 384.177 609.471 381.237 607.55 379.069C605.629 376.902 603.024 375.684 600.308 375.684H122.522Z" fill="#3E3127"/>
<path d="M323.964 268.162C306.373 270.295 288.668 271.937 271.228 274.198L181.947 285.777V269.932L261.648 259.504C281.771 256.903 302.235 255.133 322.509 252.425C322.622 257.706 323.108 262.969 323.964 268.162Z" fill="#78ABBA"/>
<path d="M488.335 286.545C481.359 306.419 468.852 323.197 452.696 334.353C436.54 345.51 417.609 350.44 398.755 348.403C379.901 346.365 362.144 337.469 348.157 323.055C334.171 308.641 324.712 289.489 321.206 268.482C320.354 263.317 319.867 258.083 319.751 252.83C319.751 251.955 319.751 251.081 319.751 250.207C319.751 247.477 319.845 244.747 320.034 242.082C320.034 242.082 320.034 241.89 320.034 241.805C320.986 254.926 324.284 267.693 329.728 279.337C336.875 294.613 347.446 307.508 360.385 316.736C373.325 325.965 388.182 331.205 403.475 331.934C418.768 332.663 433.963 328.856 447.546 320.892C461.129 312.928 472.626 301.086 480.89 286.545L495.099 263.599L488.335 286.545Z" fill="#78ABBA"/>
<path d="M182.023 369.734H176.354V94.8742H546.476V369.457H540.807V101.272H182.023V369.734Z" fill="#3E3127"/>
<path d="M146.046 98.862C139.831 94.8171 134.876 88.7011 131.862 81.3527C128.848 74.0043 127.923 65.7836 129.212 57.818C130.502 49.8524 133.943 42.5321 139.065 36.8612C144.186 31.1902 150.737 27.4464 157.818 26.1432C158.536 26.0153 159.235 25.9086 159.953 25.8447C164.378 25.3599 168.843 25.9358 173.057 27.5344C177.27 29.133 181.137 31.7184 184.404 35.1211C187.896 38.684 190.687 43.0339 192.598 47.8898C194.508 52.7458 195.495 57.9999 195.495 63.313V64.9337H191.716V63.313C191.727 58.6014 190.864 53.9395 189.181 49.6275C187.499 45.3155 185.034 41.449 181.947 38.2772C179.067 35.2769 175.657 32.9965 171.942 31.5854C168.227 30.1743 164.29 29.6642 160.388 30.0884C159.764 30.0884 159.122 30.2376 158.498 30.3656C152.184 31.5167 146.339 34.8451 141.767 39.8939C137.195 44.9427 134.12 51.4645 132.963 58.5644C131.805 65.6644 132.623 72.9945 135.304 79.549C137.985 86.1034 142.397 91.561 147.936 95.1728L146.046 98.862Z" fill="#3E3127"/>
<path d="M206.511 38.9596C203.974 38.9596 201.493 38.1104 199.383 36.5193C197.273 34.9282 195.629 32.6668 194.658 30.021C193.687 27.3751 193.433 24.4637 193.928 21.6549C194.423 18.8461 195.645 16.2661 197.439 14.241C199.233 12.216 201.519 10.8369 204.008 10.2782C206.497 9.71952 209.077 10.0063 211.421 11.1022C213.765 12.1982 215.769 14.0541 217.179 16.4353C218.589 18.8164 219.341 21.616 219.341 24.4798C219.336 28.3183 217.983 31.9981 215.578 34.7123C213.173 37.4266 209.912 38.9539 206.511 38.9596ZM206.511 14.265C204.721 14.265 202.971 14.8641 201.483 15.9865C199.994 17.1089 198.834 18.7043 198.149 20.5708C197.464 22.4373 197.285 24.4911 197.634 26.4726C197.983 28.4541 198.845 30.2742 200.111 31.7027C201.377 33.1313 202.99 34.1041 204.745 34.4983C206.501 34.8924 208.321 34.6901 209.975 33.917C211.629 33.1439 213.042 31.8346 214.037 30.1548C215.031 28.475 215.562 26.5001 215.562 24.4798C215.557 21.7724 214.602 19.1775 212.906 17.2631C211.209 15.3487 208.91 14.2707 206.511 14.265Z" fill="#3E3127"/>
<path d="M550.217 55.4866C549.716 55.4866 549.235 55.2619 548.881 54.862C548.526 54.4621 548.327 53.9197 548.327 53.3541V21.8355C548.327 21.2699 548.526 20.7275 548.881 20.3276C549.235 19.9277 549.716 19.703 550.217 19.703C550.718 19.703 551.199 19.9277 551.553 20.3276C551.907 20.7275 552.106 21.2699 552.106 21.8355V53.3541C552.106 53.9197 551.907 54.4621 551.553 54.862C551.199 55.2619 550.718 55.4866 550.217 55.4866Z" fill="#3E3127"/>
<path d="M607.602 102.103H580.374C579.873 102.103 579.392 101.879 579.038 101.479C578.683 101.079 578.484 100.536 578.484 99.9709C578.484 99.4053 578.683 98.8629 579.038 98.463C579.392 98.0631 579.873 97.8384 580.374 97.8384H607.602C608.103 97.8384 608.584 98.0631 608.938 98.463C609.292 98.8629 609.491 99.4053 609.491 99.9709C609.491 100.536 609.292 101.079 608.938 101.479C608.584 101.879 608.103 102.103 607.602 102.103Z" fill="#3E3127"/>
<path d="M598.135 42.7342C597.873 42.7362 597.613 42.6765 597.373 42.559C597.132 42.4416 596.915 42.2688 596.737 42.0518C596.567 41.8452 596.435 41.6027 596.349 41.3382C596.263 41.0737 596.224 40.7926 596.234 40.511C596.245 40.2294 596.304 39.953 596.41 39.6977C596.516 39.4424 596.666 39.2133 596.85 39.0236L607.356 28.0625C607.533 27.849 607.747 27.6789 607.985 27.5627C608.223 27.4465 608.479 27.3867 608.738 27.387C608.997 27.3874 609.253 27.4478 609.491 27.5646C609.728 27.6814 609.942 27.8521 610.119 28.066C610.295 28.2799 610.431 28.5326 610.517 28.8082C610.604 29.0838 610.639 29.3765 610.621 29.6682C610.603 29.9598 610.532 30.2442 610.412 30.5035C610.293 30.7629 610.127 30.9918 609.926 31.1759L599.42 42.1584C599.072 42.5266 598.613 42.7323 598.135 42.7342Z" fill="#3E3127"/>
<path d="M573.515 68.4523C573.256 68.4513 573 68.3903 572.762 68.2729C572.525 68.1555 572.312 67.9843 572.135 67.7699C571.964 67.5647 571.831 67.3232 571.743 67.0596C571.655 66.7959 571.614 66.5151 571.623 66.2336C571.632 65.952 571.69 65.6752 571.794 65.4191C571.898 65.163 572.046 64.9328 572.23 64.7417L587.063 49.2383C587.246 49.0466 587.461 48.8977 587.695 48.8002C587.929 48.7028 588.178 48.6588 588.428 48.6707C588.677 48.6826 588.922 48.7502 589.149 48.8696C589.375 48.989 589.578 49.1578 589.746 49.3662C590.083 49.7825 590.261 50.3326 590.239 50.8961C590.218 51.4596 590 51.9907 589.632 52.3731L574.8 67.8765C574.451 68.2447 573.992 68.4504 573.515 68.4523Z" fill="#3E3127"/>
<path d="M564.124 58.2375C563.778 58.2412 563.438 58.138 563.141 57.9389C562.928 57.7926 562.743 57.6001 562.597 57.3727C562.45 57.1453 562.345 56.8875 562.287 56.6139C562.229 56.3404 562.219 56.0566 562.259 55.779C562.299 55.5013 562.387 55.2352 562.518 54.9961L568.942 43.0966C569.072 42.8565 569.242 42.6476 569.444 42.4821C569.645 42.3167 569.874 42.1978 570.116 42.1324C570.358 42.067 570.61 42.0563 570.856 42.101C571.102 42.1457 571.338 42.2449 571.55 42.3929C571.974 42.6884 572.278 43.1613 572.395 43.7086C572.512 44.2559 572.432 44.8332 572.173 45.3144L565.73 57.2352C565.56 57.5425 565.323 57.7958 565.042 57.9712C564.761 58.1466 564.445 58.2382 564.124 58.2375Z" fill="#3E3127"/>
<path d="M588.347 84.83H580.374C579.873 84.83 579.392 84.6054 579.038 84.2055C578.683 83.8055 578.484 83.2631 578.484 82.6975C578.484 82.132 578.683 81.5895 579.038 81.1896C579.392 80.7897 579.873 80.565 580.374 80.565H588.347C588.849 80.565 589.329 80.7897 589.684 81.1896C590.038 81.5895 590.237 82.132 590.237 82.6975C590.237 83.2631 590.038 83.8055 589.684 84.2055C589.329 84.6054 588.849 84.83 588.347 84.83Z" fill="#3E3127"/>
<path d="M319.713 250.335C298.097 253.341 276.254 255.175 254.675 257.969L106.461 277.162C86.6772 279.721 66.2891 285.969 46.3735 281.15C26.4578 276.33 13.7791 255.239 13.7791 232.784V234.511C13.7791 212.013 26.5523 190.944 46.3735 186.146C66.1946 181.348 86.6772 187.575 106.461 190.134L254.675 209.326C276.178 212.12 298.135 213.933 319.732 216.961" fill="#ECEBEB"/>
<path d="M315.991 222.548V230.694C294.355 227.687 272.437 225.853 250.934 223.06L102.719 203.867C82.9359 201.308 62.5478 195.06 42.6322 199.794C24.266 204.315 11.8895 222.719 10.2645 243.297C10.1099 241.946 10.0216 240.586 10 239.224C10.3023 217.046 23 196.446 42.5755 191.712C62.4912 186.892 82.8792 193.141 102.663 195.7L250.877 214.892C272.437 217.707 294.355 219.52 315.991 222.548Z" fill="white"/>
<path d="M323.964 240.589V251.252C302.329 254.28 280.505 256.114 258.908 258.886L110.712 278.079C90.9286 280.83 70.465 286.971 50.606 282.152C31.0683 277.418 18.3517 256.818 18.0305 234.661C18.0702 231.109 18.4375 227.571 19.1264 224.105C22.6221 241.975 34.2427 257.116 50.606 261.061C70.5406 265.881 90.9286 269.997 110.712 267.459L258.908 248.266C280.411 245.451 302.329 243.617 323.964 240.589Z" fill="#C4C4C4"/>
<path d="M488.335 265.284C480.982 286.446 467.386 304.098 449.84 315.26C432.295 326.423 411.875 330.413 392.026 326.557C372.177 322.7 354.114 311.234 340.885 294.094C327.657 276.953 320.073 255.186 319.413 232.467C318.753 209.748 325.057 187.468 337.262 169.386C349.468 151.304 366.826 138.527 386.409 133.212C405.992 127.897 426.599 130.368 444.755 140.21C462.91 150.051 477.502 166.66 486.067 187.233H416.155V265.284H488.335Z" fill="#ECEBEB"/>
<path d="M487.579 191.861H481.91C471.95 174.384 457.347 160.911 440.19 153.369C423.033 145.828 404.202 144.604 386.392 149.875C368.581 155.145 352.705 166.638 341.033 182.71C329.362 198.782 322.495 218.608 321.414 239.352C321.414 237.433 321.262 235.514 321.262 233.573C321.293 211.189 328.079 189.484 340.501 172.035C352.923 154.585 370.241 142.43 389.602 137.573C408.964 132.717 429.213 135.447 447.015 145.315C464.818 155.183 479.111 171.6 487.541 191.861H487.579Z" fill="white"/>
<path d="M488.335 267.843C480.84 289.161 466.997 306.865 449.187 317.91C431.377 328.954 410.713 332.648 390.75 328.356C370.787 324.064 352.774 312.055 339.809 294.394C326.844 276.733 319.738 254.525 319.713 231.59C319.71 228.027 319.887 224.467 320.242 220.927C321.386 233.213 324.592 245.14 329.69 256.071C336.642 270.898 346.822 283.484 359.274 292.644C371.725 301.804 386.037 307.237 400.863 308.432C415.688 309.626 430.539 306.543 444.017 299.472C457.495 292.401 469.157 281.575 477.904 268.013L488.335 267.843Z" fill="#C4C4C4"/>
<path d="M399.697 194.058H357.504V209.177H399.697V194.058Z" fill="white"/>
<path d="M399.697 220.543H357.504V235.663H399.697V220.543Z" fill="white"/>
<path d="M399.697 247.029H357.504V262.149H399.697V247.029Z" fill="white"/>
<path d="M62.2455 290.021C56.6478 290.069 51.0613 289.447 45.5799 288.165C25.4375 283.303 10.6802 262.085 10 237.369V235.62C10.6802 210.904 25.4375 189.686 45.5799 184.866C61.2819 181.07 77.0783 183.821 92.3457 186.466C97.1451 187.297 102.096 188.172 106.895 188.79L255.11 207.983C264.784 209.241 274.742 210.329 284.379 211.374C296.132 212.653 308.281 213.975 320.28 215.639L319.354 224.169C307.544 222.505 295.432 221.204 283.736 219.904C274.062 218.859 264.066 217.771 254.316 216.513L106.102 197.32C101.17 196.68 96.1437 195.806 91.2687 194.974C76.6815 192.437 61.5842 189.792 47.2426 193.268C30.2369 197.256 17.8982 215.404 17.5581 236.495C17.8982 257.585 30.2369 275.733 47.1671 279.827C61.5086 283.303 76.6059 280.659 91.212 278.121C96.0681 277.268 101.094 276.394 106.026 275.754C155.431 269.371 204.836 262.973 254.241 256.562C263.991 255.303 273.967 254.216 283.623 253.171C295.338 251.891 307.45 250.591 319.259 248.906L320.185 257.436C308.262 259.099 296.113 260.421 284.284 261.701C274.667 262.746 264.728 263.833 255.053 265.092L106.838 284.284C102.058 284.903 97.0885 285.756 92.308 286.587C82.3795 288.597 72.3293 289.744 62.2455 290.021Z" fill="#3E3127"/>
<path d="M406.99 335.252C390.673 335.251 374.655 330.302 360.613 320.922C346.57 311.542 335.02 298.075 327.168 281.931C319.317 265.787 315.454 247.558 315.984 229.152C316.513 210.746 321.415 192.838 330.177 177.302C338.939 161.767 351.24 149.174 365.791 140.841C380.343 132.508 396.611 128.742 412.895 129.936C429.178 131.129 444.878 137.24 458.352 147.627C471.826 158.015 482.58 172.298 489.487 188.982L492.019 195.039H419.858V264.559H493.871L491.83 270.38C485.184 289.626 473.51 306.136 458.358 317.722C443.206 329.307 425.292 335.421 406.99 335.252ZM406.99 138.271C392.065 138.316 377.424 142.875 364.59 151.473C351.755 160.072 341.198 172.395 334.016 187.162C326.834 201.928 323.291 218.597 323.754 235.433C324.218 252.269 328.672 268.658 336.652 282.892C344.632 297.127 355.847 308.687 369.129 316.37C382.411 324.053 397.276 327.577 412.174 326.576C427.073 325.575 441.462 320.085 453.843 310.678C466.224 301.271 476.144 288.291 482.572 273.089H412.3V186.508H479.888C472.606 171.908 462.021 159.749 449.214 151.275C436.407 142.8 421.836 138.313 406.99 138.271Z" fill="#3E3127"/>
<path d="M401.586 214.018H355.614V194.612H401.586V214.018ZM359.393 209.753H397.807V198.877H359.393V209.753Z" fill="#3E3127"/>
<path d="M401.586 240.482H355.614V221.119H401.586V240.482ZM359.393 236.217H397.807V225.384H359.393V236.217Z" fill="#3E3127"/>
<path d="M401.586 266.968H355.614V247.584H401.586V266.968ZM359.393 262.703H397.807V251.849H359.393V262.703Z" fill="#3E3127"/>
<path d="M99.526 273.281C102.761 273.281 105.384 270.321 105.384 266.67C105.384 263.019 102.761 260.059 99.526 260.059C96.2909 260.059 93.6684 263.019 93.6684 266.67C93.6684 270.321 96.2909 273.281 99.526 273.281Z" fill="#C4C4C4"/>
<path d="M391.799 317.488C396.317 317.488 399.98 313.354 399.98 308.254C399.98 303.154 396.317 299.02 391.799 299.02C387.28 299.02 383.617 303.154 383.617 308.254C383.617 313.354 387.28 317.488 391.799 317.488Z" fill="#C4C4C4"/>
<path d="M520.4 362.228C524.919 362.228 528.582 358.094 528.582 352.994C528.582 347.894 524.919 343.76 520.4 343.76C515.881 343.76 512.218 347.894 512.218 352.994C512.218 358.094 515.881 362.228 520.4 362.228Z" fill="#78ABBA"/>
<path d="M209.005 108.821C209.005 111.27 208.143 113.618 206.609 115.35C205.075 117.082 202.994 118.055 200.824 118.055C198.654 118.055 196.573 117.082 195.038 115.35C193.504 113.618 192.642 111.27 192.642 108.821C192.642 103.831 196.308 103.831 200.843 103.831C205.377 103.831 209.005 103.831 209.005 108.821Z" fill="white"/>
<path d="M211.877 125.199C214.132 125.199 215.959 123.136 215.959 120.592C215.959 118.048 214.132 115.986 211.877 115.986C209.623 115.986 207.796 118.048 207.796 120.592C207.796 123.136 209.623 125.199 211.877 125.199Z" fill="#D2EEF9"/>
<path d="M192.396 122.725C193.523 122.725 194.437 121.694 194.437 120.422C194.437 119.15 193.523 118.119 192.396 118.119C191.269 118.119 190.356 119.15 190.356 120.422C190.356 121.694 191.269 122.725 192.396 122.725Z" fill="#D2EEF9"/>
<path d="M106.536 260.805C107.788 260.805 108.804 259.66 108.804 258.246C108.804 256.833 107.788 255.687 106.536 255.687C105.284 255.687 104.269 256.833 104.269 258.246C104.269 259.66 105.284 260.805 106.536 260.805Z" fill="#C4C4C4"/>
<path d="M402.134 299.447C403.387 299.447 404.402 298.301 404.402 296.888C404.402 295.474 403.387 294.329 402.134 294.329C400.882 294.329 399.867 295.474 399.867 296.888C399.867 298.301 400.882 299.447 402.134 299.447Z" fill="#C4C4C4"/>
<path d="M526.333 339.517C527.585 339.517 528.601 338.371 528.601 336.958C528.601 335.544 527.585 334.398 526.333 334.398C525.081 334.398 524.066 335.544 524.066 336.958C524.066 338.371 525.081 339.517 526.333 339.517Z" fill="#78ABBA"/>
<path d="M382.313 299.34C384.358 299.34 386.017 297.469 386.017 295.16C386.017 292.852 384.358 290.98 382.313 290.98C380.268 290.98 378.61 292.852 378.61 295.16C378.61 297.469 380.268 299.34 382.313 299.34Z" fill="#C4C4C4"/>
<path d="M503.413 345.317C506.565 345.317 509.12 342.434 509.12 338.877C509.12 335.32 506.565 332.437 503.413 332.437C500.262 332.437 497.707 335.32 497.707 338.877C497.707 342.434 500.262 345.317 503.413 345.317Z" fill="#78ABBA"/>
<path d="M129.04 216.684H128.851L108.577 213.997C108.329 213.964 108.089 213.877 107.87 213.74C107.652 213.603 107.46 213.419 107.304 213.199C107.149 212.978 107.034 212.725 106.965 212.454C106.897 212.183 106.876 211.899 106.905 211.619C106.933 211.339 107.01 211.068 107.132 210.821C107.253 210.575 107.416 210.358 107.612 210.183C107.807 210.007 108.032 209.877 108.272 209.8C108.512 209.723 108.763 209.699 109.011 209.732L129.286 212.397C129.534 212.413 129.777 212.483 130.001 212.604C130.225 212.726 130.426 212.896 130.592 213.105C130.758 213.314 130.885 213.557 130.968 213.822C131.05 214.087 131.085 214.367 131.072 214.647C131.058 214.927 130.996 215.201 130.888 215.454C130.781 215.707 130.63 215.933 130.445 216.121C130.26 216.308 130.044 216.452 129.809 216.545C129.575 216.638 129.326 216.678 129.078 216.662L129.04 216.684Z" fill="#3E3127"/>
<path d="M132.819 223.913H132.631L120.519 222.313C120.271 222.281 120.03 222.194 119.812 222.057C119.594 221.92 119.401 221.736 119.246 221.515C119.091 221.295 118.976 221.041 118.907 220.77C118.838 220.499 118.818 220.216 118.846 219.936C118.875 219.656 118.952 219.385 119.073 219.138C119.195 218.892 119.358 218.675 119.553 218.5C119.749 218.324 119.973 218.194 120.214 218.117C120.454 218.039 120.705 218.016 120.953 218.048L133.065 219.648C133.566 219.679 134.036 219.933 134.371 220.355C134.706 220.777 134.878 221.332 134.851 221.898C134.823 222.463 134.598 222.993 134.224 223.371C133.85 223.749 133.358 223.944 132.857 223.913H132.819Z" fill="#3E3127"/>
<path d="M567.638 385.75C567.515 385.752 567.393 385.727 567.278 385.676C567.164 385.625 567.059 385.548 566.971 385.451C566.883 385.354 566.813 385.238 566.766 385.109C566.718 384.981 566.693 384.844 566.693 384.705C566.691 384.563 566.714 384.422 566.76 384.29C566.806 384.158 566.875 384.038 566.963 383.937C567.051 383.835 567.156 383.755 567.272 383.7C567.388 383.645 567.513 383.617 567.638 383.617H588.045C588.168 383.614 588.291 383.639 588.405 383.69C588.52 383.742 588.624 383.818 588.712 383.915C588.8 384.013 588.87 384.129 588.918 384.257C588.966 384.385 588.99 384.523 588.99 384.662C588.99 384.943 588.894 385.213 588.721 385.416C588.549 385.619 588.313 385.738 588.064 385.75H567.638Z" fill="#3E3127"/>
<path d="M580.374 390.27C580.251 390.273 580.128 390.248 580.014 390.197C579.899 390.146 579.795 390.069 579.707 389.972C579.619 389.875 579.549 389.759 579.501 389.63C579.454 389.502 579.429 389.365 579.429 389.226C579.429 388.941 579.528 388.667 579.705 388.464C579.881 388.261 580.121 388.144 580.374 388.138H592.561C592.812 388.138 593.052 388.25 593.229 388.45C593.406 388.65 593.506 388.921 593.506 389.204C593.508 389.343 593.486 389.481 593.441 389.611C593.396 389.74 593.328 389.858 593.242 389.957C593.155 390.056 593.052 390.135 592.939 390.189C592.825 390.243 592.703 390.27 592.58 390.27H580.374Z" fill="#3E3127"/>
<path d="M126.792 385.75C126.669 385.752 126.546 385.727 126.432 385.676C126.317 385.625 126.213 385.548 126.125 385.451C126.037 385.354 125.967 385.238 125.919 385.109C125.872 384.981 125.847 384.844 125.847 384.705C125.845 384.563 125.867 384.422 125.914 384.29C125.96 384.158 126.029 384.038 126.117 383.937C126.205 383.835 126.31 383.755 126.426 383.7C126.542 383.645 126.666 383.617 126.792 383.617H147.199C147.445 383.622 147.68 383.733 147.855 383.928C148.031 384.122 148.134 384.385 148.144 384.662C148.139 384.945 148.038 385.215 147.863 385.418C147.687 385.62 147.45 385.739 147.199 385.75H126.773H126.792Z" fill="#3E3127"/>
<path d="M139.527 390.27C139.28 390.27 139.042 390.161 138.866 389.966C138.689 389.77 138.587 389.505 138.583 389.226C138.583 388.941 138.681 388.667 138.858 388.464C139.035 388.261 139.275 388.144 139.527 388.138H151.715C151.965 388.138 152.206 388.25 152.383 388.45C152.56 388.65 152.66 388.921 152.66 389.204C152.66 389.487 152.56 389.758 152.383 389.958C152.206 390.158 151.965 390.27 151.715 390.27H139.508H139.527Z" fill="#3E3127"/>
<path d="M492.926 150.746C492.449 150.744 491.99 150.539 491.641 150.17C491.277 149.785 491.062 149.252 491.044 148.689C491.026 148.125 491.207 147.577 491.547 147.163L512.842 121.168C513.004 120.941 513.206 120.754 513.435 120.618C513.663 120.483 513.914 120.402 514.172 120.38C514.43 120.358 514.688 120.396 514.933 120.492C515.177 120.587 515.401 120.738 515.591 120.936C515.781 121.133 515.934 121.372 516.039 121.639C516.144 121.905 516.2 122.193 516.203 122.484C516.205 122.776 516.155 123.065 516.055 123.334C515.954 123.603 515.806 123.845 515.62 124.047L494.324 150.064C494.146 150.281 493.93 150.453 493.689 150.571C493.448 150.688 493.188 150.748 492.926 150.746Z" fill="#3E3127"/>
<path d="M514.505 139.295C514.136 139.297 513.774 139.178 513.465 138.952C513.155 138.726 512.911 138.403 512.763 138.022C512.614 137.641 512.567 137.219 512.628 136.809C512.689 136.398 512.856 136.017 513.106 135.712L525.842 120.166C526.008 119.956 526.209 119.785 526.434 119.663C526.659 119.54 526.903 119.469 527.152 119.453C527.401 119.438 527.651 119.477 527.886 119.57C528.122 119.663 528.339 119.808 528.525 119.995C528.711 120.183 528.863 120.41 528.971 120.664C529.079 120.917 529.142 121.193 529.156 121.474C529.17 121.755 529.135 122.037 529.053 122.303C528.97 122.568 528.842 122.813 528.676 123.023L515.941 138.569C515.762 138.8 515.54 138.984 515.293 139.109C515.045 139.234 514.776 139.297 514.505 139.295Z" fill="#3E3127"/>
<path d="M592.127 348.878C589.589 348.878 587.109 348.029 584.999 346.438C582.889 344.847 581.244 342.586 580.273 339.94C579.302 337.294 579.048 334.382 579.543 331.574C580.038 328.765 581.26 326.185 583.054 324.16C584.849 322.135 587.135 320.756 589.624 320.197C592.112 319.638 594.692 319.925 597.036 321.021C599.381 322.117 601.385 323.973 602.794 326.354C604.204 328.735 604.957 331.535 604.957 334.399C604.952 338.237 603.598 341.917 601.193 344.631C598.788 347.345 595.528 348.873 592.127 348.878ZM592.127 324.184C590.337 324.184 588.587 324.783 587.098 325.905C585.61 327.028 584.45 328.623 583.765 330.489C583.08 332.356 582.9 334.41 583.25 336.391C583.599 338.373 584.461 340.193 585.727 341.621C586.992 343.05 588.605 344.023 590.361 344.417C592.117 344.811 593.936 344.609 595.59 343.836C597.244 343.063 598.658 341.753 599.652 340.074C600.647 338.394 601.177 336.419 601.177 334.399C601.172 331.691 600.217 329.096 598.521 327.182C596.825 325.267 594.526 324.189 592.127 324.184Z" fill="#3E3127"/>
<path d="M404.175 387.989H319.335C314.08 387.99 308.922 386.387 304.408 383.35C299.894 380.313 296.192 375.955 293.694 370.737C293.576 370.49 293.503 370.22 293.477 369.941C293.452 369.663 293.475 369.381 293.546 369.113C293.618 368.845 293.735 368.595 293.891 368.378C294.048 368.16 294.241 367.98 294.459 367.847C294.678 367.714 294.917 367.631 295.164 367.602C295.411 367.574 295.66 367.6 295.898 367.68C296.136 367.761 296.357 367.893 296.55 368.07C296.742 368.246 296.902 368.464 297.02 368.711C299.204 373.236 302.43 377.011 306.358 379.639C310.286 382.266 314.769 383.648 319.335 383.638H404.175C408.741 383.648 413.224 382.266 417.152 379.639C421.08 377.011 424.306 373.236 426.49 368.711C426.608 368.464 426.768 368.246 426.96 368.07C427.153 367.893 427.374 367.761 427.612 367.68C427.85 367.6 428.099 367.574 428.346 367.602C428.593 367.631 428.832 367.714 429.051 367.847C429.269 367.98 429.462 368.16 429.619 368.378C429.775 368.595 429.893 368.845 429.964 369.113C430.035 369.381 430.058 369.663 430.033 369.941C430.008 370.22 429.934 370.49 429.816 370.737C427.318 375.955 423.616 380.313 419.102 383.35C414.588 386.387 409.43 387.99 404.175 387.989Z" fill="#3E3127"/>
<path d="M428.153 157.336C428.022 157.357 427.888 157.357 427.756 157.336C416.343 154.484 404.523 154.411 393.083 157.122C392.595 157.243 392.084 157.14 391.662 156.836C391.241 156.533 390.943 156.053 390.835 155.502C390.782 155.227 390.778 154.944 390.823 154.667C390.867 154.391 390.96 154.127 391.095 153.892C391.23 153.656 391.405 153.452 391.61 153.293C391.815 153.134 392.046 153.022 392.29 152.964C404.251 150.104 416.616 150.176 428.55 153.177C429.038 153.295 429.464 153.626 429.737 154.097C430.009 154.568 430.106 155.142 430.005 155.694C429.906 156.163 429.67 156.582 429.333 156.88C428.997 157.178 428.581 157.339 428.153 157.336Z" fill="white"/>
<path d="M368.349 168.702C368.061 168.701 367.776 168.626 367.518 168.482C367.259 168.337 367.033 168.128 366.857 167.87C366.55 167.426 366.411 166.862 366.472 166.303C366.532 165.743 366.786 165.233 367.178 164.885C371.248 161.63 375.675 158.985 380.348 157.016C380.814 156.806 381.335 156.815 381.795 157.039C382.256 157.263 382.619 157.684 382.804 158.21C382.99 158.736 382.982 159.324 382.784 159.843C382.586 160.363 382.212 160.773 381.746 160.982C377.419 162.807 373.317 165.251 369.54 168.254C369.2 168.552 368.78 168.71 368.349 168.702Z" fill="white"/>
<path d="M194.683 153.582C193.931 153.582 193.21 153.245 192.679 152.646C192.147 152.046 191.848 151.232 191.848 150.384V136.863C191.848 136.015 192.147 135.201 192.679 134.602C193.21 134.002 193.931 133.665 194.683 133.665C195.434 133.665 196.155 134.002 196.687 134.602C197.218 135.201 197.517 136.015 197.517 136.863V150.384C197.517 151.232 197.218 152.046 196.687 152.646C196.155 153.245 195.434 153.582 194.683 153.582Z" fill="white"/>
<path d="M194.683 190.859C193.931 190.859 193.21 190.522 192.679 189.922C192.147 189.322 191.848 188.508 191.848 187.66V166.484C191.848 165.636 192.147 164.822 192.679 164.222C193.21 163.622 193.931 163.285 194.683 163.285C195.434 163.285 196.155 163.622 196.687 164.222C197.218 164.822 197.517 165.636 197.517 166.484V187.66C197.517 188.508 197.218 189.322 196.687 189.922C196.155 190.522 195.434 190.859 194.683 190.859Z" fill="white"/>
<path d="M185.915 211.864V212.845C185.905 214.352 186.387 215.811 187.269 216.944C188.15 218.076 189.37 218.804 190.696 218.987L235.27 225.256C236.037 225.362 236.816 225.283 237.554 225.023C238.292 224.764 238.973 224.331 239.552 223.752C240.131 223.173 240.594 222.463 240.911 221.667C241.228 220.871 241.392 220.009 241.392 219.136V216.62" fill="white"/>
</g>
<defs>
<filter id="filter0_f_24_100" x="0" y="0" width="645" height="431" filterUnits="userSpaceOnUse" color-interpolation-filters="sRGB">
<feFlood flood-opacity="0" result="BackgroundImageFix"/>
<feBlend mode="normal" in="SourceGraphic" in2="BackgroundImageFix" result="shape"/>
<feGaussianBlur stdDeviation="5" result="effect1_foregroundBlur_24_100"/>
</filter>
</defs>
</svg>
